<svg width="0" height="0" class="hidden">
<!--соцмережі-->
  <symbol xmlns="http://www.w3.org/2000/svg" id="github" viewBox="0 0 20 20">
    <path d="M10 0C4.507 0 0 4.507 0 10c0 4.687 3.289 8.945 7.656 10v-3.308a2.446 2.446 0 0 1-1.271-.033c-.591-.174-1.071-.568-1.428-1.168-.227-.383-.63-.8-1.05-.769l-.103-1.167c.909-.078 1.694.554 2.16 1.337.208.349.447.553.753.643.295.088.613.046.983-.085.093-.741.433-1.018.69-1.41-2.605-.388-3.643-1.77-4.055-2.86-.546-1.449-.253-3.258.712-4.402.019-.022.053-.08.04-.12-.443-1.338.096-2.444.116-2.561.511.15.594-.152 2.22.835l.28.169c.118.07.08.03.198.02A8.487 8.487 0 0 1 10 4.828c.71.009 1.42.11 2.127.302l.091.01c-.008-.002.025-.006.08-.039 2.03-1.23 1.957-.828 2.502-1.005.02.118.551 1.242.114 2.562-.06.182 1.76 1.848.751 4.522-.412 1.09-1.45 2.473-4.054 2.861.334.51.735.78.733 1.83V20C16.71 18.945 20 14.687 20 10c0-5.493-4.507-10-10-10Z"/>
  </symbol>
  <symbol xmlns="http://www.w3.org/2000/svg" id="telegram" viewBox="0 0 22 16">
    <path d="m8.673 10.524-.338 4.43c.483 0 .692-.194.943-.426l2.264-2.02 4.69 3.207c.86.447 1.466.211 1.698-.739l3.08-13.464V1.51C21.283.324 20.55-.14 19.712.15L1.615 6.617C.38 7.065.399 7.707 1.405 8l4.627 1.343 10.747-6.276c.505-.313.965-.14.587.173l-8.693 7.285Z"/>
  </symbol>
  <symbol xmlns="http://www.w3.org/2000/svg" id="facebook" viewBox="0 0 11 22">
    <path d="M9.723 10.98H6.95V21.2H2.748V10.98H.75V7.39h1.998V5.065C2.748 3.403 3.533.8 6.988.8L10.1.813V4.3H7.842c-.37 0-.892.187-.892.98v2.113h3.14l-.367 3.588Z"/>
  </symbol>
<!--переваги-->
  <symbol xmlns="http://www.w3.org/2000/svg" id="cow" viewBox="0 0 36 37">
    <g clip-path="url(#clip0_4683_131)">
      <path d="M6.94.9c-.294.253-1.133 2.003-1.434 2.958-.358 1.184-.48 2.072-.432 3.297.065 1.75.505 3.078 1.474 4.464.253.364.457.677.457.702 0 .017-.155.034-.35.034-.84 0-2.412.279-3.617.642C1.124 13.572 0 14.578 0 15.703c0 .397.358 1.073.741 1.42.741.668 2.362 1.302 4.105 1.606.603.11 2.395.296 2.794.305.073 0 .098.388.098 1.665 0 1.099.04 1.953.122 2.477.293 1.877 1.205 3.864 2.41 5.267l.416.482-.277.448c-.407.634-.562 1.116-.61 1.834-.123 1.725.952 3.255 3.03 4.329 3.957 2.054 10.107 1.251 12.412-1.623 1.124-1.404 1.254-3.01.366-4.464L25.33 29l.497-.6c.929-1.116 1.531-2.232 1.987-3.644.383-1.2.53-2.359.53-4.193 0-.837.024-1.53.065-1.53.375-.009 2.175-.203 2.745-.305 1.751-.304 3.34-.93 4.105-1.606.383-.347.741-1.023.741-1.42 0-1.252-1.27-2.266-3.633-2.875-.773-.203-2.231-.448-2.94-.49l-.334-.026.367-.507c.456-.617 1.026-1.817 1.246-2.604.619-2.274.236-4.92-1.091-7.448C29.06.705 28.677.46 28.23.874c-.171.16-.245.38-.407 1.175-.505 2.528-1.442 4.532-2.81 6.011l-.603.66H11.525l-.538-.584c-1.335-1.47-2.305-3.55-2.81-6.087-.163-.795-.236-1.014-.407-1.175-.269-.245-.53-.237-.83.025Zm1.042 5.013c.432.947.97 1.834 1.604 2.654l.505.651-.529.398c-.497.38-.961.921-1.32 1.538l-.154.28-.391-.533c-1.336-1.843-1.67-4.1-.961-6.442.342-1.133.334-1.125.643-.144.147.473.424 1.192.603 1.598Zm21.2-1.784a8.354 8.354 0 0 1 .465 2.849c0 1.539-.407 2.84-1.262 4.007l-.383.524-.285-.482a5.063 5.063 0 0 0-1.426-1.564c-.22-.143-.39-.287-.39-.304 0-.025.154-.22.35-.431.904-1.006 1.873-2.815 2.354-4.37.146-.483.293-.88.317-.88.025 0 .147.296.26.65Zm-4.161 6.18c.904.38 1.767 1.47 1.906 2.392.073.508.244.829.464.88.098.017.774.076 1.499.126 2.573.17 4.601.719 5.465 1.471.399.355.358.651-.122 1.015-.961.727-3.038 1.276-5.156 1.37-1.401.059-1.694.1-1.882.295-.138.144-.154.296-.154 1.826 0 2.072-.106 3.264-.367 4.227-.366 1.31-1.091 2.706-1.938 3.695l-.35.406-.725-.431a8.987 8.987 0 0 0-2.688-1.091c-3.087-.735-6.5-.287-8.796 1.158l-.53.338-.334-.397c-.456-.533-1.173-1.674-1.458-2.316-.627-1.454-.814-2.638-.814-5.242 0-2.528.13-2.342-1.743-2.443-2.395-.127-4.22-.558-5.368-1.285-.847-.541-.708-1.023.473-1.59 1.132-.55 2.687-.879 4.846-1.014 1.678-.11 1.718-.135 1.873-.947.228-1.226 1.132-2.24 2.273-2.562.285-.084 1.881-.101 6.768-.092l6.394.016.464.195Zm-4.578 17.5c1.996.49 3.486 1.403 4.13 2.536.155.262.22.533.252.947.033.516.009.642-.187 1.065-.904 1.92-4.227 3.187-7.607 2.9-4.064-.338-6.736-2.604-5.685-4.827.57-1.2 2.5-2.35 4.536-2.689.334-.05.668-.11.733-.127.066-.017.799-.017 1.63 0 1.131.026 1.677.076 2.198.195Z"/>
      <path d="M12.364 14.544c-.505.17-.847.39-1.303.846-.4.38-.432.828-.098 1.099.31.253.603.22.977-.11.473-.414.84-.583 1.296-.583.456-.009.806.152 1.294.583.375.33.668.363.978.11.163-.135.212-.245.212-.499 0-.262-.057-.38-.343-.668-.806-.811-2.003-1.124-3.013-.778ZM21.86 14.536c-.52.194-1.189.634-1.457.963-.261.322-.27.685 0 .956.268.287.594.27.985-.051.961-.795 1.678-.82 2.566-.085.228.195.488.347.57.347.399 0 .725-.355.725-.778 0-.27-.676-.896-1.287-1.192-.676-.33-1.482-.389-2.101-.16ZM13.545 30.185c-.236.228-.318.558-.196.82.09.211.228.296.79.448.253.067.359.152.448.363.114.28.123.28.75.305l.627.025v-.237c-.008-.338-.196-.828-.44-1.166-.285-.39-.782-.643-1.344-.694-.383-.033-.48-.017-.635.136ZM21.323 30.125c-.407.11-.993.66-1.156 1.09a2.92 2.92 0 0 0-.155.77c-.016.363.016.448.212.626.48.422 1.116.093 1.116-.584 0-.33.244-.558.676-.642.456-.085.619-.27.627-.702 0-.566-.505-.786-1.32-.558Z"/>
    </g>
    <defs>
      <clipPath id="clip0_4683_131">
        <path fill="#fff" d="M0 .683h36v36H0z"/>
      </clipPath>
    </defs>
  </symbol>
  <symbol xmlns="http://www.w3.org/2000/svg" id="weight" viewBox="0 0 36 36">
    <path d="M15.95.615c-4.471.663-8.153 3.146-9.508 6.396-.432 1.027-.548 1.658-.548 2.895.008.914.041 1.253.183 1.746.29.97.498 1.464.93 2.16l.4.646-.45.55c-3.548 4.415-3.939 10.625-.98 15.517 1.105 1.835 2.909 3.639 4.67 4.69l.524.307 7.164-.057 7.172-.064.34-.186c1.189-.671 2.867-2.167 3.806-3.38a14.188 14.188 0 0 0 2.726-6.323c.133-.833.133-3.3-.008-4.084-.424-2.417-1.33-4.487-2.759-6.323-.274-.348-.49-.639-.49-.663 0-.016.15-.267.324-.55.407-.647.773-1.48.972-2.207.224-.809.224-2.83 0-3.639-.798-2.87-3.191-5.264-6.573-6.582-.948-.372-2.569-.768-3.616-.897-.972-.114-3.374-.09-4.28.048Zm5.06 1.318c4.438.865 7.688 3.582 8.286 6.93.133.752.05 2.03-.174 2.74-.225.696-.64 1.513-1.13 2.208-.2.283-.366.607-.366.712 0 .105.174.38.424.655 2.077 2.304 3.174 5.191 3.174 8.312-.008 3.55-1.371 6.663-3.997 9.105-.449.42-1.089.946-1.43 1.172l-.623.42-6.873.025-6.864.032-.532-.34c-1.928-1.253-3.665-3.323-4.629-5.522-1.213-2.781-1.338-6.008-.349-8.902.524-1.504 1.222-2.733 2.285-4.027.433-.518.632-.825.632-.97 0-.122-.216-.518-.499-.93-.997-1.448-1.404-3.057-1.163-4.577.25-1.536.947-2.798 2.235-4.051 1.68-1.625 4.023-2.7 6.774-3.105 1.138-.17 3.656-.105 4.82.113Z"/>
    <path d="M16.323 3.356c-3.407.558-6.075 2.45-6.947 4.933-.2.558-.233.776-.233 1.576 0 .801.033 1.02.233 1.577.124.356.357.85.515 1.1.432.695.623.72 1.48.202a13.439 13.439 0 0 1 4.28-1.674c1.03-.21 3.008-.29 4.13-.161 1.753.202 3.656.832 5.177 1.73.432.25.873.46.98.46.632 0 1.438-1.819 1.438-3.234 0-3.145-3.008-5.838-7.271-6.509-.906-.145-2.91-.145-3.782 0Zm4.114 1.294c1.43.307 2.742.89 3.732 1.658 1.33 1.027 2.044 2.458 1.927 3.84-.041.55-.249 1.294-.373 1.375-.034.016-.5-.178-1.031-.437A16.485 16.485 0 0 0 21.06 9.85c-.773-.161-1.097-.186-2.825-.178-1.704 0-2.061.025-2.8.178a14.97 14.97 0 0 0-3.508 1.197c-1.238.59-1.172.598-1.396-.13-.29-.945-.108-2.199.457-3.145.3-.501 1.122-1.334 1.72-1.746 1.139-.785 2.136-1.14 4.28-1.529.44-.08 2.884.033 3.449.154ZM19.083 15.08c-.233.292-.233.567.008.801.158.154.316.194.89.235a7.321 7.321 0 0 1 3.132.954c.682.404 1.72 1.383 2.186 2.086.69 1.01 1.163 2.458 1.163 3.526 0 .372.034.485.208.646.266.267.615.267.873 0 .183-.186.19-.234.141-1.026-.233-3.914-3.582-7.18-7.587-7.4l-.832-.048-.182.227Z"/>
  </symbol>
  <symbol xmlns="http://www.w3.org/2000/svg" id="ice-crema" viewBox="0 0 36 36">
    <path d="M18.122.12c.09.242.271 1.409.271 1.77a3.47 3.47 0 0 1-.941 2.388c-.505.542-1.01.843-2.222 1.333-1.348.55-1.906.881-2.538 1.506-.64.64-1.017 1.34-1.152 2.162-.151.896 0 1.528.459 1.89l.233.18-.369.234c-.745.49-2.1 1.642-2.334 1.996-.452.678-.407 1.31.105 1.567l.241.12-.271.256c-.407.384-.49.648-.43 1.34.038.46.023.709-.082 1.085-.128.49-.128.497.037.844.166.339.633.768 1.055.949.203.09.21.12.256.813.023.4.06 1.672.09 2.832.023 1.16.076 2.222.12 2.35.038.135.181.316.31.406.436.302.738.626.933 1.002.219.43.46 1.484 1.19 5.129l.512 2.56.317.302c.602.595 1.755.866 3.653.866 1.905 0 3.042-.264 3.645-.859l.324-.308L22 32.46c1.031-5.189 1.122-5.475 1.928-6.115.248-.204.49-.452.534-.565.053-.128.106-1.115.143-2.606.03-1.325.076-2.636.106-2.915l.045-.504.49-.37c.617-.474.858-.903.858-1.566-.007-.783-.52-1.642-1.453-2.41l-.445-.361.219-.31c.911-1.257.339-2.997-1.356-4.156l-.512-.354.188-.196c.836-.896.972-3.57.271-5.43-.421-1.107-1.386-2.312-2.568-3.201C19.87.964 18.272 0 18.13 0c-.03 0-.03.053-.007.12ZM20.29 2.75c.4.392.881.926 1.07 1.197 1.122 1.567 1.408 3.533.73 4.979-.271.587-1.085 1.46-1.838 1.98-1.152.799-3.743 2.14-5.55 2.877-2.907 1.183-4.595 1.409-4.79.633-.076-.294.143-.527 1.07-1.145.835-.572 4.586-3.359 4.653-3.472.023-.03-.361.143-.843.384-1.634.829-2.41.67-2.372-.482.022-.836.625-1.785 1.46-2.327.212-.135.867-.437 1.47-.678 1.98-.798 2.583-1.205 3.253-2.206.4-.595.836-1.695.866-2.162.008-.165.038-.294.06-.294.023 0 .362.324.76.716Zm2.056 8.556c.55.308 1.122.836 1.37 1.25.438.745.212 1.491-.73 2.44-1.024 1.04-2.771 2.034-4.692 2.666-1.77.58-3.464.851-5.89.934l-1.506.053.98.06c1.265.083 3.712.008 4.661-.143 2.523-.4 4.67-1.198 6.206-2.297.347-.249.708-.452.806-.452.249 0 1.333 1.04 1.552 1.476.12.249.15.43.128.67-.113 1.002-1.334 1.537-4.278 1.89-3.6.43-8.307.008-10.318-.918-.95-.437-1.107-.686-.866-1.348.075-.211.09-.46.06-.814-.038-.467-.03-.527.135-.7.377-.407 1.01-.64 3.33-1.228.813-.21 1.92-.542 2.447-.738 1.28-.467 3.683-1.68 4.797-2.425 1.047-.693 1.198-.723 1.808-.376Zm-10.002 9.218c1.582.46 2.983.595 5.589.542 1.958-.037 3.163-.158 4.902-.467.355-.06.663-.113.701-.113.083 0 .06 2.892-.03 3.653-.098.806-.317 1.431-.55 1.582-.241.158-1.446.324-3.058.414-3.306.18-6.703 0-7.757-.422-.572-.233-.633-.535-.64-3.329 0-1.86.015-2.116.113-2.078.06.022.391.12.73.218Zm1.785 6.402c.542.067 1.13.135 1.31.158l.325.038-.287.316c-.369.399-.934 1.197-1.137 1.604-.233.467-.309.497-.655.309l-.294-.166-.165-1.024a28.822 28.822 0 0 0-.211-1.183c-.068-.195-.136-.195 1.114-.052Zm8.029-.083c0 .015-.038.21-.076.43-.045.225-.233 1.453-.421 2.733-.384 2.674-.64 3.931-.874 4.353-.324.565-1.1.896-2.357 1.002-.49.038-1.966-.06-2.049-.136-.06-.067 1.235-1.672 1.439-1.777.188-.106.24-.09.88.24.746.393 1.123.453 1.123.204 0-.248-.196-.49-.678-.82-.444-.317-.602-.498-.602-.709 0-.06.218-.399.482-.753.263-.354.647-.919.843-1.258l.37-.61.338.046c.685.098.866.09.844-.06-.015-.076-.143-.294-.287-.475-.143-.188-.256-.377-.256-.414 0-.143.7-1.461.927-1.74.196-.241.354-.362.354-.256Zm-4.707.602c.376.249 1.792 1.477 1.882 1.627.038.068-1.415 2.342-1.702 2.666-.03.038-.188-.037-.346-.158a24.697 24.697 0 0 0-1.31-.904l-1.017-.67.61-1.032c1.084-1.815 1.062-1.785 1.295-1.785.12 0 .384.113.588.256Zm2.854.271c-.264.324-.482.528-.572.528-.196 0-.513-.173-1.047-.565l-.445-.324.89-.053a17.57 17.57 0 0 0 1.03-.067c.603-.098.603-.09.144.481Zm-5.694 3.623c.693.271 1.868.911 2.207 1.198.241.195.241.21.143.451a7.58 7.58 0 0 1-.467.806 13.73 13.73 0 0 0-.505.836c-.24.467-.316.505-.813.37-.535-.159-.82-.43-.971-.92-.204-.685-.528-2.62-.49-2.922.015-.113.331-.045.896.181Z"/>
  </symbol>
<!--меню-->
  <symbol xmlns="http://www.w3.org/2000/svg" id="menu" viewBox="0 0 32 32">
    <path d="M26.733 14.667H5.267c-.7 0-1.267.567-1.267 1.266v.134c0 .7.567 1.266 1.267 1.266h21.466c.7 0 1.267-.567 1.267-1.266v-.134c0-.7-.567-1.266-1.267-1.266ZM26.733 21.333H5.267C4.567 21.333 4 21.9 4 22.6v.133c0 .7.567 1.267 1.267 1.267h21.466c.7 0 1.267-.567 1.267-1.267V22.6c0-.7-.567-1.267-1.267-1.267ZM26.733 8H5.267C4.567 8 4 8.567 4 9.267V9.4c0 .7.567 1.267 1.267 1.267h21.466c.7 0 1.267-.567 1.267-1.267v-.133C28 8.567 27.433 8 26.733 8Z"/>
  </symbol>
  <symbol xmlns="http://www.w3.org/2000/svg" id="close" viewBox="0 0 20 20">
    <g clip-path="url(#clip0_4684_239)">
      <path d="m10.783 10 4.606-4.606a.556.556 0 0 0-.784-.783L10 9.217 5.394 4.606a.558.558 0 0 0-.789.788L9.216 10l-4.61 4.605a.556.556 0 1 0 .783.784l4.61-4.606 4.606 4.606a.556.556 0 0 0 .784-.784L10.783 10Z"/>
    </g>
    <defs>
      <clipPath id="clip0_4684_239">
        <path fill="#fff" d="M0 0h20v20H0z"/>
      </clipPath>
    </defs>
  </symbol>
<!--лого-->
  <symbol xmlns="http://www.w3.org/2000/svg" id="logo" viewBox="0 0 40 38">
    <path d="M20.406 16.755c1.916-5.185-2.052-8.023-4.681-9.888-.503-.381-1.006-.737-1.413-1.063a4.958 4.958 0 0 1-1.584-5.12.54.54 0 0 0-.417-.673.544.544 0 0 0-.292.021 8.879 8.879 0 0 0-2.438 1.45A5.785 5.785 0 0 0 7.323 6.05c-.496.39-.934.847-1.302 1.358a4.975 4.975 0 0 0-.96 3.184 6.306 6.306 0 0 0-1.916 5.922 1.706 1.706 0 0 0-.761 1.922 1.705 1.705 0 0 0 1.656 1.242h.035v2.948a1.127 1.127 0 0 0 1.131 1.129h.88L7.52 36.14a1.123 1.123 0 0 0 1.121 1.003h5.963a1.138 1.138 0 0 0 1.127-1.003l1.433-12.385h.88a1.133 1.133 0 0 0 1.131-1.128v-2.949h.035a1.717 1.717 0 0 0 1.587-2.37c-.086-.21-.214-.399-.375-.558l-.015.005ZM7.499 7.348c.724 2.713 3.52 3.78 6.069 4.734a.548.548 0 1 0 .387-1.003C11.21 10.04 8.62 9.073 8.425 6.3a4.627 4.627 0 0 1 1.834-3.976c.383-.317.793-.6 1.227-.842a6.508 6.508 0 0 0 0 1.043 5.93 5.93 0 0 0 2.122 4.126c.417.356.935.722 1.508 1.113 1.323.948 2.826 2.006 3.781 3.44a5.351 5.351 0 0 1 .549 5.09h-2.222c-4.581 0-9.846-1.264-10.886-4.804a4.05 4.05 0 0 1 1.186-4.117L7.5 7.348Zm4.123 17.094 1.68 1.674-1.68 1.675-1.68-1.685 1.68-1.664Zm3.851 4.397-1.387 1.384-1.68-1.675 1.68-1.67 1.458 1.45-.07.511Zm-3.851 3.841-1.68-1.675 1.68-1.674 1.68 1.674-1.68 1.675Zm-.77-4.122-1.679 1.675-1.397-1.394-.06-.501 1.457-1.45 1.68 1.67ZM8.4 31.005l-.337.336-.085-.762.422.426Zm-.176 1.715.95-.948 1.846 1.856c.009.037.02.074.035.11H8.339l-.116-1.018Zm5.853-.948.95.948-.116 1.003h-2.79l1.956-1.95Zm1.106-.43-.337-.337.427-.426-.09.762Zm.502-4.383-.84-.853 1.067-1.063-.226 1.916Zm-1.613-1.615-1.594-1.584h3.187l-1.593 1.584Zm-4.903 0L7.574 23.76h3.188l-1.594 1.584Zm5.43 10.71H8.64a.04.04 0 0 1-.035-.035l-.14-1.203h6.315l-.136 1.203a.04.04 0 0 1-.04.035h-.006Zm4.611-17.469h-1.75a.55.55 0 0 0-.6.544.546.546 0 0 0 .6.544h.624v2.949a.04.04 0 0 1-.04.035H5.186a.04.04 0 0 1-.04-.035v-2.949h9.96a.548.548 0 0 0 .354-.911.548.548 0 0 0-.354-.177H4.045a.626.626 0 0 1-.68-.62.62.62 0 0 1 .68-.619h1.141a.549.549 0 0 0 .496-.544.546.546 0 0 0-.496-.543H4.181a5.36 5.36 0 0 1 1.096-4.363c.352 1.093 1.257 2.587 3.52 3.776 2.126 1.108 4.942 1.674 8.366 1.674h2.011a.626.626 0 0 1 .626.369.62.62 0 0 1-.626.87h.035ZM23.582 33.715l-.406.623.009.005.398-.628Zm4.372.21.744-.016-.02-.86-.848.143.125.733Zm.051 2.288.19.72.567-.15-.013-.586-.744.016Zm-5.737.11.167-.726h-.005l-.162.725Zm-2.832-1.264.48-.568-.48.568Zm-1.024-2.325.743.004v-.004h-.743Zm.355-1.626-.667-.329v.002l.667.327Zm2.28-1.947.265.696.002-.001-.266-.695Zm7.307-.189.741.058.05-.628-.612-.151-.179.721Zm-.182 2.332-.138.73.815.155.065-.828-.742-.057Zm-1.982-.954c-1.116 0-2.055.119-2.74.42-.351.154-.67.372-.903.679a1.75 1.75 0 0 0-.355 1.075h1.488c0-.087.02-.136.052-.177.039-.05.126-.131.317-.215.4-.176 1.088-.295 2.14-.295v-1.488Zm-3.998 2.174c0 .765.343 1.396.985 1.814l.811-1.246c-.22-.144-.308-.307-.308-.568h-1.488Zm.993 1.82c.607.384 1.409.529 2.308.529v-1.488c-.777 0-1.249-.131-1.513-.298l-.795 1.256Zm2.308.529c.882 0 1.744-.072 2.586-.214l-.249-1.467a13.94 13.94 0 0 1-2.337.193v1.488Zm1.718-.931.05 2.288 1.488-.033-.051-2.288-1.487.033Zm.605 1.552c-.85.224-1.788.339-2.817.339v1.487c1.14 0 2.206-.127 3.196-.388l-.379-1.438ZM25 35.833c-1.05 0-1.9-.083-2.564-.236l-.334 1.45c.809.186 1.78.273 2.898.273v-1.487Zm-2.569-.237c-.71-.158-1.222-.327-1.564-.494l-.653 1.336c.491.24 1.13.44 1.893.61l.324-1.452Zm-1.564-.494a4.533 4.533 0 0 1-.95-.61l-.962 1.134c.372.315.793.585 1.26.812l.652-1.336Zm-.95-.611c-.506-.428-.765-.986-.76-1.753l-1.488-.007c-.006 1.17.418 2.16 1.288 2.895l.96-1.136Zm-.76-1.757c0-.5.097-.928.28-1.3L18.1 30.78a4.39 4.39 0 0 0-.432 1.954h1.487Zm.279-1.298c.338-.688.936-1.222 1.877-1.58l-.528-1.39c-1.228.466-2.15 1.23-2.684 2.313l1.335.657Zm1.88-1.58c.989-.38 2.093-.576 3.32-.576v-1.487c-1.387 0-2.674.221-3.854.674l.534 1.389Zm3.32-.576c1.252 0 2.431.14 3.54.414l.358-1.443a16.144 16.144 0 0 0-3.897-.458v1.488Zm2.977-.365-.181 2.331 1.483.116.181-2.332-1.482-.115Zm.699 1.658a11.504 11.504 0 0 0-2.121-.224v1.488c.523 0 1.136.063 1.844.197l.277-1.46Zm7.256 1.188-.004.744.756.004-.008-.756-.744.008Zm-.32-.966-.506.545.007.006.5-.55Zm-1.851.073.515.537.005-.006-.52-.531Zm-.45.879-.734-.12-.142.859.871.005.004-.744Zm5.468 3.965.45.593.267-.203.025-.334-.742-.056Zm-1.605.596-.16-.727-.004.001.164.726Zm-5.578-.204-.253.7.006.002.247-.702Zm-1.27-.675-.462.583.009.007.452-.59Zm-.85-1.068-.667.33.002.003.665-.333Zm.871-4.51.495.556-.495-.556Zm6.798-.806.297-.682-.007-.003-.29.685Zm1.706 1.569-.668.325.002.004.666-.33Zm.291 1.3.742.054.002-.027v-.027h-.744Zm-.087 1.198-.004.744.695.003.05-.693-.741-.054Zm-5.89-.029.004-.744-.97-.004.247.938.719-.19Zm.843 1.039-.367.647.003.002.363-.65Zm4.517-.255v-.743h-.149l-.137.057.286.686Zm.392 0 .742.056.06-.8h-.802v.744Zm-2.241-2.114c-.006-.538-.13-1.115-.564-1.509l-1 1.102c-.008-.008.01.002.03.066.023.068.044.182.046.357l1.488-.016Zm-.557-1.503c-.39-.362-.903-.482-1.407-.482v1.488c.29 0 .378.07.395.084l1.012-1.09Zm-1.407-.482c-.554 0-1.069.174-1.472.569l1.041 1.062c.081-.08.2-.143.43-.143v-1.488Zm-1.467.563a2.268 2.268 0 0 0-.669 1.295l1.468.241a.783.783 0 0 1 .232-.463l-1.03-1.073Zm.061 2.16 2.622.014.008-1.487-2.622-.015-.008 1.487Zm5.024 2.629c-.163.123-.561.295-1.316.461l.32 1.453c.785-.173 1.457-.398 1.894-.73l-.898-1.184Zm-1.32.462a9.41 9.41 0 0 1-2.08.243v1.488c.786 0 1.59-.095 2.408-.28l-.328-1.45Zm-2.08.243c-.701 0-1.278-.033-1.738-.095l-.199 1.474c.547.074 1.195.109 1.937.109v-1.488Zm-1.738-.095c-.452-.06-.9-.17-1.348-.327l-.495 1.403c.54.19 1.089.324 1.644.398l.199-1.474Zm-1.342-.325a3.975 3.975 0 0 1-1.072-.566l-.905 1.18c.423.325.917.584 1.47.784l.507-1.398Zm-1.063-.56a2.37 2.37 0 0 1-.646-.816l-1.33.665c.261.524.61.968 1.053 1.318l.923-1.166Zm-.645-.813c-.156-.317-.25-.724-.25-1.247H28.04c0 .698.125 1.341.404 1.906l1.333-.66Zm-.25-1.247c0-.523.095-.985.273-1.396l-1.364-.592a4.947 4.947 0 0 0-.396 1.988h1.488Zm.273-1.396c.188-.432.417-.751.677-.982l-.99-1.111c-.447.398-.793.907-1.051 1.501l1.364.592Zm.677-.983c.8-.712 2.019-1.125 3.775-1.125v-1.488c-1.97 0-3.598.463-4.765 1.503l.99 1.11Zm3.775-1.125c.789 0 1.532.15 2.237.449l.581-1.37a7.149 7.149 0 0 0-2.818-.567v1.488Zm2.23.446c.659.287 1.084.694 1.336 1.212l1.337-.65c-.426-.877-1.138-1.515-2.078-1.926l-.595 1.364Zm1.338 1.216c.139.281.213.6.213.97h1.488c0-.578-.12-1.125-.368-1.628l-1.333.658Zm.215.917-.087 1.198 1.484.108.087-1.198-1.484-.108Zm.659.508-5.89-.029-.008 1.488 5.89.029.008-1.488Zm-6.613.905c.174.659.599 1.159 1.196 1.496l.731-1.295c-.294-.166-.43-.359-.489-.58l-1.438.379Zm1.198 1.498c.604.337 1.358.472 2.2.472v-1.487c-.706 0-1.176-.117-1.474-.284l-.726 1.299Zm2.2.472c.905 0 1.899-.245 2.967-.689l-.572-1.373c-.956.398-1.75.575-2.394.575v1.487Zm2.68-.632h.393v-1.487h-.392v1.487Zm-.349-.799-.138 1.845 1.484.11.138-1.844-1.484-.111Z"/>
  </symbol>
<!--стрілочка-->
  <symbol xmlns="http://www.w3.org/2000/svg" id="arrow" viewBox="0 0 41 16">
    <path d="M40.707 8.707a1 1 0 0 0 0-1.414L34.343.929a1 1 0 1 0-1.414 1.414L38.586 8l-5.657 5.657a1 1 0 0 0 1.414 1.414l6.364-6.364ZM0 9h40V7H0v2Z"/>
  </symbol>

<!--стрілочка для кнопок-->
  <symbol xmlns="http://www.w3.org/2000/svg" id="vector" viewBox="0 0 22 32">
    <path d="M3.103 0.726c-0.45 0.45-0.703 1.060-0.703 1.697s0.253 1.247 0.703 1.697l11.88 11.88-11.88 11.88c-0.437 0.453-0.679 1.059-0.674 1.688s0.258 1.231 0.703 1.676c0.445 0.445 1.047 0.697 1.676 0.703s1.236-0.236 1.688-0.674l13.577-13.577c0.45-0.45 0.703-1.060 0.703-1.697s-0.253-1.247-0.703-1.697l-13.577-13.577c-0.45-0.45-1.060-0.703-1.697-0.703s-1.247 0.253-1.697 0.703z"></path>
  </symbol>


<!--крапки-->
  <symbol xmlns="http://www.w3.org/2000/svg" id="dots-mobile" viewBox="0 0 320 50">
    <ellipse cx="241.993" cy="46.276" fill="#F8D24E" rx="2.6" ry="2.779"/>
    <ellipse cx="247.628" cy="42.571" fill="#F8D24E" rx="2.6" ry="2.779"/>
    <ellipse cx="254.126" cy="38.403" fill="#F8D24E" rx="2.6" ry="2.779"/>
    <ellipse cx="260.195" cy="34.698" fill="#F8D24E" rx="2.6" ry="2.779"/>
    <ellipse cx="256.726" cy="44.423" fill="#F8D24E" rx="2.6" ry="2.779"/>
    <ellipse cx="262.361" cy="40.718" fill="#F8D24E" rx="2.6" ry="2.779"/>
    <ellipse cx="268.86" cy="36.55" fill="#F8D24E" rx="2.6" ry="2.779"/>
    <ellipse cx="274.929" cy="32.846" fill="#F8D24E" rx="2.6" ry="2.779"/>
    <ellipse cx="269.296" cy="43.034" fill="#F8D24E" rx="2.6" ry="2.779"/>
    <ellipse cx="274.93" cy="39.329" fill="#F8D24E" rx="2.6" ry="2.779"/>
    <ellipse cx="281.43" cy="35.161" fill="#F8D24E" rx="2.6" ry="2.779"/>
    <ellipse cx="287.496" cy="31.457" fill="#F8D24E" rx="2.6" ry="2.779"/>
    <ellipse cx="281.428" cy="41.182" fill="#F8D24E" rx="2.6" ry="2.779"/>
    <ellipse cx="287.061" cy="37.477" fill="#F8D24E" rx="2.6" ry="2.779"/>
    <ellipse cx="293.561" cy="33.309" fill="#F8D24E" rx="2.6" ry="2.779"/>
    <ellipse cx="299.629" cy="29.604" fill="#F8D24E" rx="2.6" ry="2.779"/>
    <ellipse cx="285.331" cy="46.276" fill="#F8D24E" rx="2.6" ry="2.779"/>
    <ellipse cx="290.965" cy="42.571" fill="#F8D24E" rx="2.6" ry="2.779"/>
    <ellipse cx="298.765" cy="46.739" fill="#F8D24E" rx="2.6" ry="2.779"/>
    <ellipse cx="297.465" cy="38.403" fill="#F8D24E" rx="2.6" ry="2.779"/>
    <ellipse cx="305.266" cy="42.571" fill="#F8D24E" rx="2.6" ry="2.779"/>
    <ellipse cx="311.334" cy="46.739" fill="#F8D24E" rx="2.6" ry="2.779"/>
    <ellipse cx="303.533" cy="34.698" fill="#F8D24E" rx="2.6" ry="2.779"/>
    <ellipse cx="311.334" cy="38.865" fill="#F8D24E" rx="2.6" ry="2.779"/>
    <ellipse cx="317.401" cy="43.034" fill="#F8D24E" rx="2.6" ry="2.779"/>
    <ellipse cx="215.559" cy="15.711" fill="#F8D24E" rx="2.6" ry="2.779"/>
    <ellipse cx="221.192" cy="12.006" fill="#F8D24E" rx="2.6" ry="2.779"/>
    <ellipse cx="227.694" cy="7.838" fill="#F8D24E" rx="2.6" ry="2.779"/>
    <ellipse cx="233.759" cy="4.133" fill="#F8D24E" rx="2.6" ry="2.779"/>
    <ellipse cx="204.724" cy="15.247" fill="#F8D24E" rx="2.6" ry="2.779"/>
    <ellipse cx="210.357" cy="11.542" fill="#F8D24E" rx="2.6" ry="2.779"/>
    <ellipse cx="216.857" cy="7.375" fill="#F8D24E" rx="2.6" ry="2.779"/>
    <ellipse cx="222.924" cy="3.67" fill="#F8D24E" rx="2.6" ry="2.779"/>
    <ellipse cx="228.992" cy="46.276" fill="#F8D24E" rx="2.6" ry="2.779"/>
    <ellipse cx="234.625" cy="42.571" fill="#F8D24E" rx="2.6" ry="2.779"/>
    <ellipse cx="241.125" cy="38.403" fill="#F8D24E" rx="2.6" ry="2.779"/>
    <ellipse cx="247.193" cy="34.698" fill="#F8D24E" rx="2.6" ry="2.779"/>
    <ellipse cx="222.058" cy="43.498" fill="#F8D24E" rx="2.6" ry="2.779"/>
    <ellipse cx="227.692" cy="39.793" fill="#F8D24E" rx="2.6" ry="2.779"/>
    <ellipse cx="234.192" cy="35.624" fill="#F8D24E" rx="2.6" ry="2.779"/>
    <ellipse cx="240.259" cy="31.92" fill="#F8D24E" rx="2.6" ry="2.779"/>
    <ellipse cx="224.659" cy="33.772" fill="#F8D24E" rx="2.6" ry="2.779"/>
    <ellipse cx="230.292" cy="30.067" fill="#F8D24E" rx="2.6" ry="2.779"/>
    <ellipse cx="236.794" cy="25.899" fill="#F8D24E" rx="2.6" ry="2.779"/>
    <ellipse cx="242.86" cy="22.194" fill="#F8D24E" rx="2.6" ry="2.779"/>
    <ellipse cx="224.659" cy="17.563" fill="#F8D24E" rx="2.6" ry="2.779"/>
    <ellipse cx="230.292" cy="13.858" fill="#F8D24E" rx="2.6" ry="2.779"/>
    <ellipse cx="236.794" cy="9.69" fill="#F8D24E" rx="2.6" ry="2.779"/>
    <ellipse cx="242.86" cy="5.985" fill="#F8D24E" rx="2.6" ry="2.779"/>
    <ellipse cx="223.358" cy="26.363" fill="#F8D24E" rx="2.6" ry="2.779"/>
    <ellipse cx="228.993" cy="22.657" fill="#F8D24E" rx="2.6" ry="2.779"/>
    <ellipse cx="235.492" cy="18.49" fill="#F8D24E" rx="2.6" ry="2.779"/>
    <ellipse cx="241.559" cy="14.785" fill="#F8D24E" rx="2.6" ry="2.779"/>
    <ellipse cx="196.056" cy="12.932" fill="#F8D24E" rx="2.6" ry="2.779"/>
    <ellipse cx="201.691" cy="9.227" fill="#F8D24E" rx="2.6" ry="2.779"/>
    <ellipse cx="208.191" cy="5.059" fill="#F8D24E" rx="2.6" ry="2.779"/>
    <path fill="#F8D24E" d="M207.757 15.71c1.436 0 2.601-1.244 2.601-2.778 0-1.535-1.165-2.779-2.601-2.779s-2.6 1.244-2.6 2.779c0 1.534 1.164 2.778 2.6 2.778Z"/>
    <ellipse fill="#F8D24E" rx="2.643" ry="2.816" transform="matrix(.9869 -.16168 .14201 .98991 85.581 33.982)"/>
    <ellipse fill="#F8D24E" rx="2.643" ry="2.816" transform="matrix(.9869 -.16168 .14201 .98991 90.7 29.34)"/>
    <ellipse fill="#F8D24E" rx="2.643" ry="2.816" transform="matrix(.9869 -.16168 .14201 .98991 96.62 24.09)"/>
    <ellipse fill="#F8D24E" rx="2.643" ry="2.816" transform="matrix(.9869 -.16168 .14201 .98991 102.173 19.377)"/>
    <ellipse cx="2.72" cy="33.551" fill="#F8D24E" rx="2.72" ry="2.82"/>
    <ellipse cx="8.611" cy="29.792" fill="#F8D24E" rx="2.72" ry="2.82"/>
    <ellipse cx="15.413" cy="25.562" fill="#F8D24E" rx="2.72" ry="2.82"/>
    <ellipse cx="21.758" cy="21.802" fill="#F8D24E" rx="2.72" ry="2.82"/>
    <ellipse cx="5.44" cy="40.6" fill="#F8D24E" rx="2.72" ry="2.82"/>
    <ellipse cx="11.333" cy="36.841" fill="#F8D24E" rx="2.72" ry="2.82"/>
    <ellipse cx="18.134" cy="32.611" fill="#F8D24E" rx="2.72" ry="2.82"/>
    <ellipse cx="24.479" cy="28.851" fill="#F8D24E" rx="2.72" ry="2.82"/>
    <ellipse cx="12.238" cy="44.36" fill="#F8D24E" rx="2.72" ry="2.82"/>
    <ellipse cx="18.132" cy="40.6" fill="#F8D24E" rx="2.72" ry="2.82"/>
    <ellipse cx="24.931" cy="36.371" fill="#F8D24E" rx="2.72" ry="2.82"/>
    <ellipse cx="31.276" cy="32.611" fill="#F8D24E" rx="2.72" ry="2.82"/>
    <ellipse cx="19.943" cy="46.711" fill="#F8D24E" rx="2.72" ry="2.82"/>
    <ellipse cx="25.836" cy="42.95" fill="#F8D24E" rx="2.72" ry="2.82"/>
    <ellipse cx="32.638" cy="38.721" fill="#F8D24E" rx="2.72" ry="2.82"/>
    <ellipse cx="38.981" cy="34.961" fill="#F8D24E" rx="2.72" ry="2.82"/>
    <ellipse cx="29.917" cy="47.181" fill="#F8D24E" rx="2.72" ry="2.82"/>
    <ellipse cx="35.81" cy="43.421" fill="#F8D24E" rx="2.72" ry="2.82"/>
    <ellipse cx="42.61" cy="39.191" fill="#F8D24E" rx="2.72" ry="2.82"/>
    <ellipse cx="48.955" cy="35.431" fill="#F8D24E" rx="2.72" ry="2.82"/>
    <ellipse cx="41.704" cy="47.18" fill="#F8D24E" rx="2.72" ry="2.82"/>
    <ellipse cx="47.596" cy="43.42" fill="#F8D24E" rx="2.72" ry="2.82"/>
    <ellipse cx="54.396" cy="39.191" fill="#F8D24E" rx="2.72" ry="2.82"/>
    <ellipse cx="60.742" cy="35.431" fill="#F8D24E" rx="2.72" ry="2.82"/>
    <ellipse cx="51.674" cy="46.71" fill="#F8D24E" rx="2.72" ry="2.82"/>
    <ellipse cx="57.566" cy="42.95" fill="#F8D24E" rx="2.72" ry="2.82"/>
    <ellipse cx="64.367" cy="38.721" fill="#F8D24E" rx="2.72" ry="2.82"/>
    <ellipse cx="70.712" cy="34.961" fill="#F8D24E" rx="2.72" ry="2.82"/>
    <ellipse cx="63.006" cy="46.24" fill="#F8D24E" rx="2.72" ry="2.82"/>
    <ellipse cx="68.898" cy="42.48" fill="#F8D24E" rx="2.72" ry="2.82"/>
    <ellipse cx="75.699" cy="38.251" fill="#F8D24E" rx="2.72" ry="2.82"/>
    <ellipse cx="82.044" cy="34.491" fill="#F8D24E" rx="2.72" ry="2.82"/>
    <ellipse cx="73.432" cy="34.021" fill="#F8D24E" rx="2.72" ry="2.82"/>
    <ellipse cx="79.324" cy="30.261" fill="#F8D24E" rx="2.72" ry="2.82"/>
    <ellipse cx="86.124" cy="26.032" fill="#F8D24E" rx="2.72" ry="2.82"/>
    <ellipse cx="92.47" cy="22.272" fill="#F8D24E" rx="2.72" ry="2.82"/>
  </symbol>
  <symbol xmlns="http://www.w3.org/2000/svg" id="dots-tablet" viewBox="0 0 768 69">
    <ellipse cx="655.854" cy="63.761" fill="#F8D24E" rx="4.005" ry="3.988"/>
    <ellipse cx="663.865" cy="58.776" fill="#F8D24E" rx="4.005" ry="3.988"/>
    <ellipse cx="673.877" cy="52.795" fill="#F8D24E" rx="4.005" ry="3.988"/>
    <ellipse cx="681.888" cy="47.81" fill="#F8D24E" rx="4.005" ry="3.988"/>
    <ellipse cx="676.881" cy="61.767" fill="#F8D24E" rx="4.005" ry="3.988"/>
    <ellipse cx="684.892" cy="56.783" fill="#F8D24E" rx="4.005" ry="3.988"/>
    <ellipse cx="694.905" cy="50.801" fill="#F8D24E" rx="4.005" ry="3.988"/>
    <ellipse cx="702.915" cy="45.816" fill="#F8D24E" rx="4.005" ry="3.988"/>
    <ellipse cx="694.905" cy="59.773" fill="#F8D24E" rx="4.005" ry="3.988"/>
    <ellipse cx="702.915" cy="54.788" fill="#F8D24E" rx="4.005" ry="3.988"/>
    <ellipse cx="712.928" cy="48.806" fill="#F8D24E" rx="4.005" ry="3.988"/>
    <ellipse cx="720.939" cy="43.822" fill="#F8D24E" rx="4.005" ry="3.988"/>
    <ellipse cx="712.928" cy="56.783" fill="#F8D24E" rx="4.005" ry="3.988"/>
    <ellipse cx="720.939" cy="51.798" fill="#F8D24E" rx="4.005" ry="3.988"/>
    <ellipse cx="730.952" cy="45.816" fill="#F8D24E" rx="4.005" ry="3.988"/>
    <ellipse cx="738.962" cy="40.831" fill="#F8D24E" rx="4.005" ry="3.988"/>
    <ellipse cx="717.935" cy="63.761" fill="#F8D24E" rx="4.005" ry="3.988"/>
    <ellipse cx="725.945" cy="58.776" fill="#F8D24E" rx="4.005" ry="3.988"/>
    <ellipse cx="736.96" cy="64.758" fill="#F8D24E" rx="4.005" ry="3.988"/>
    <ellipse cx="735.958" cy="52.795" fill="#F8D24E" rx="4.005" ry="3.988"/>
    <ellipse cx="746.972" cy="58.776" fill="#F8D24E" rx="4.005" ry="3.988"/>
    <ellipse cx="755.984" cy="64.758" fill="#F8D24E" rx="4.005" ry="3.988"/>
    <ellipse cx="743.969" cy="47.81" fill="#F8D24E" rx="4.005" ry="3.988"/>
    <ellipse cx="755.984" cy="53.792" fill="#F8D24E" rx="4.005" ry="3.988"/>
    <ellipse cx="763.995" cy="59.774" fill="#F8D24E" rx="4.005" ry="3.988"/>
    <ellipse cx="617.805" cy="21.888" fill="#F8D24E" rx="4.005" ry="3.988"/>
    <ellipse cx="625.815" cy="16.903" fill="#F8D24E" rx="4.005" ry="3.988"/>
    <ellipse cx="635.828" cy="10.921" fill="#F8D24E" rx="4.005" ry="3.988"/>
    <ellipse cx="643.838" cy="5.937" fill="#F8D24E" rx="4.005" ry="3.988"/>
    <ellipse cx="601.784" cy="20.891" fill="#F8D24E" rx="4.005" ry="3.988"/>
    <ellipse cx="609.794" cy="15.906" fill="#F8D24E" rx="4.005" ry="3.988"/>
    <ellipse cx="619.807" cy="9.924" fill="#F8D24E" rx="4.005" ry="3.988"/>
    <ellipse cx="627.818" cy="4.94" fill="#F8D24E" rx="4.005" ry="3.988"/>
    <ellipse cx="636.829" cy="63.761" fill="#F8D24E" rx="4.005" ry="3.988"/>
    <ellipse cx="644.84" cy="58.776" fill="#F8D24E" rx="4.005" ry="3.988"/>
    <ellipse cx="654.853" cy="52.795" fill="#F8D24E" rx="4.005" ry="3.988"/>
    <ellipse cx="662.863" cy="47.81" fill="#F8D24E" rx="4.005" ry="3.988"/>
    <ellipse cx="626.816" cy="60.77" fill="#F8D24E" rx="4.005" ry="3.988"/>
    <ellipse cx="634.826" cy="55.785" fill="#F8D24E" rx="4.005" ry="3.988"/>
    <ellipse cx="644.84" cy="49.804" fill="#F8D24E" rx="4.005" ry="3.988"/>
    <ellipse cx="652.85" cy="44.819" fill="#F8D24E" rx="4.005" ry="3.988"/>
    <ellipse cx="630.822" cy="46.813" fill="#F8D24E" rx="4.005" ry="3.988"/>
    <ellipse cx="638.832" cy="41.828" fill="#F8D24E" rx="4.005" ry="3.988"/>
    <ellipse cx="648.845" cy="35.846" fill="#F8D24E" rx="4.005" ry="3.988"/>
    <ellipse cx="656.855" cy="30.861" fill="#F8D24E" rx="4.005" ry="3.988"/>
    <ellipse cx="630.822" cy="23.882" fill="#F8D24E" rx="4.005" ry="3.988"/>
    <ellipse cx="638.832" cy="18.897" fill="#F8D24E" rx="4.005" ry="3.988"/>
    <ellipse cx="648.845" cy="12.915" fill="#F8D24E" rx="4.005" ry="3.988"/>
    <ellipse cx="656.855" cy="7.931" fill="#F8D24E" rx="4.005" ry="3.988"/>
    <ellipse cx="628.819" cy="36.843" fill="#F8D24E" rx="4.005" ry="3.988"/>
    <ellipse cx="636.829" cy="31.858" fill="#F8D24E" rx="4.005" ry="3.988"/>
    <ellipse cx="646.842" cy="25.876" fill="#F8D24E" rx="4.005" ry="3.988"/>
    <ellipse cx="654.853" cy="20.891" fill="#F8D24E" rx="4.005" ry="3.988"/>
    <ellipse cx="589.267" cy="17.9" fill="#F8D24E" rx="3.505" ry="3.988"/>
    <ellipse cx="597.278" cy="12.915" fill="#F8D24E" rx="3.505" ry="3.988"/>
    <ellipse cx="607.291" cy="6.933" fill="#F8D24E" rx="3.505" ry="3.988"/>
    <path fill="#F8D24E" d="M606.289 21.888c1.936 0 3.505-1.785 3.505-3.988 0-2.202-1.569-3.988-3.505-3.988-1.935 0-3.504 1.786-3.504 3.988 0 2.203 1.569 3.988 3.504 3.988Z"/>
    <ellipse cx="4.005" cy="59" fill="#F8D24E" rx="4.005" ry="4"/>
    <ellipse cx="12.015" cy="54" fill="#F8D24E" rx="4.005" ry="4"/>
    <ellipse cx="22.029" cy="48" fill="#F8D24E" rx="4.005" ry="4"/>
    <ellipse cx="30.039" cy="43" fill="#F8D24E" rx="4.005" ry="4"/>
    <ellipse cx="52.068" cy="61" fill="#F8D24E" rx="4.005" ry="4"/>
    <ellipse cx="60.078" cy="56" fill="#F8D24E" rx="4.005" ry="4"/>
    <ellipse cx="70.091" cy="50" fill="#F8D24E" rx="4.005" ry="4"/>
    <ellipse cx="78.102" cy="45" fill="#F8D24E" rx="4.005" ry="4"/>
    <ellipse cx="70.592" cy="58" fill="#F8D24E" rx="3.505" ry="4"/>
    <ellipse cx="78.602" cy="53" fill="#F8D24E" rx="3.505" ry="4"/>
    <ellipse cx="87.614" cy="48" fill="#F8D24E" rx="3.505" ry="4"/>
    <ellipse cx="96.626" cy="43" fill="#F8D24E" rx="3.505" ry="4"/>
    <ellipse cx="106.639" cy="35" fill="#F8D24E" rx="3.505" ry="4"/>
    <ellipse cx="85.612" cy="39" fill="#F8D24E" rx="3.505" ry="4"/>
    <ellipse cx="34.044" cy="61" fill="#F8D24E" rx="4.005" ry="4"/>
    <ellipse cx="42.054" cy="56" fill="#F8D24E" rx="4.005" ry="4"/>
    <ellipse cx="52.068" cy="50" fill="#F8D24E" rx="4.005" ry="4"/>
    <ellipse cx="60.078" cy="45" fill="#F8D24E" rx="4.005" ry="4"/>
    <ellipse cx="18.023" cy="60" fill="#F8D24E" rx="4.005" ry="4"/>
    <ellipse cx="26.034" cy="55" fill="#F8D24E" rx="4.005" ry="4"/>
    <ellipse cx="36.047" cy="49" fill="#F8D24E" rx="4.005" ry="4"/>
    <ellipse cx="44.057" cy="44" fill="#F8D24E" rx="4.005" ry="4"/>
  </symbol>
  <symbol xmlns="http://www.w3.org/2000/svg" id="dots-desktop" viewBox="0 0 1200 384">
    <ellipse cx="447.193" cy="32.755" fill="#F8D24E" rx="5.858" ry="6.244"/>
    <ellipse cx="459.886" cy="24.429" fill="#F8D24E" rx="5.858" ry="6.244"/>
    <ellipse cx="474.532" cy="15.063" fill="#F8D24E" rx="5.858" ry="6.244"/>
    <ellipse cx="488.202" cy="6.738" fill="#F8D24E" rx="5.858" ry="6.244"/>
    <ellipse cx="428.641" cy="54.608" fill="#F8D24E" rx="5.858" ry="6.244"/>
    <ellipse cx="441.335" cy="46.283" fill="#F8D24E" rx="5.858" ry="6.244"/>
    <ellipse cx="455.98" cy="36.917" fill="#F8D24E" rx="5.858" ry="6.244"/>
    <ellipse cx="469.65" cy="28.592" fill="#F8D24E" rx="5.858" ry="6.244"/>
    <ellipse cx="400.325" cy="55.649" fill="#F8D24E" rx="5.858" ry="6.244"/>
    <ellipse cx="413.019" cy="47.324" fill="#F8D24E" rx="5.858" ry="6.244"/>
    <ellipse cx="427.665" cy="37.958" fill="#F8D24E" rx="5.858" ry="6.244"/>
    <ellipse cx="441.335" cy="29.633" fill="#F8D24E" rx="5.858" ry="6.244"/>
    <ellipse cx="384.703" cy="79.584" fill="#F8D24E" rx="5.858" ry="6.244"/>
    <ellipse cx="397.396" cy="71.259" fill="#F8D24E" rx="5.858" ry="6.244"/>
    <ellipse cx="412.042" cy="61.893" fill="#F8D24E" rx="5.858" ry="6.244"/>
    <ellipse cx="425.712" cy="53.568" fill="#F8D24E" rx="5.858" ry="6.244"/>
    <ellipse cx="372.986" cy="101.438" fill="#F8D24E" rx="5.858" ry="6.244"/>
    <ellipse cx="385.679" cy="93.112" fill="#F8D24E" rx="5.858" ry="6.244"/>
    <ellipse cx="400.325" cy="83.746" fill="#F8D24E" rx="5.858" ry="6.244"/>
    <ellipse cx="413.995" cy="75.421" fill="#F8D24E" rx="5.858" ry="6.244"/>
    <ellipse fill="#F8D24E" rx="5.858" ry="6.244" transform="matrix(1 .00156 -.00137 1 364.208 123.3)"/>
    <ellipse fill="#F8D24E" rx="5.858" ry="6.244" transform="matrix(1 .00156 -.00137 1 376.912 114.995)"/>
    <ellipse fill="#F8D24E" rx="5.858" ry="6.244" transform="matrix(1 .00156 -.00137 1 391.572 105.652)"/>
    <ellipse fill="#F8D24E" rx="5.858" ry="6.244" transform="matrix(1 .00156 -.00137 1 405.253 97.348)"/>
    <ellipse fill="#F8D24E" rx="5.858" ry="6.244" transform="matrix(1 .00156 -.00137 1 240.228 160.806)"/>
    <ellipse fill="#F8D24E" rx="5.858" ry="6.244" transform="matrix(1 .00156 -.00137 1 253.909 152.502)"/>
    <ellipse fill="#F8D24E" rx="5.858" ry="6.244" transform="matrix(1 .00156 -.00137 1 325.151 132.666)"/>
    <ellipse fill="#F8D24E" rx="5.858" ry="6.244" transform="matrix(1 .00156 -.00137 1 337.856 124.361)"/>
    <ellipse fill="#F8D24E" rx="5.858" ry="6.244" transform="matrix(1 .00156 -.00137 1 352.514 115.018)"/>
    <ellipse fill="#F8D24E" rx="5.858" ry="6.244" transform="matrix(1 .00156 -.00137 1 366.196 106.713)"/>
    <ellipse cx="241.171" cy="142.023" fill="#F8D24E" rx="5.858" ry="6.244"/>
    <ellipse cx="254.841" cy="133.698" fill="#F8D24E" rx="5.858" ry="6.244"/>
    <ellipse cx="273.393" cy="124.332" fill="#F8D24E" rx="5.858" ry="6.244"/>
    <ellipse cx="286.086" cy="116.007" fill="#F8D24E" rx="5.858" ry="6.244"/>
    <ellipse cx="300.732" cy="106.64" fill="#F8D24E" rx="5.858" ry="6.244"/>
    <ellipse cx="314.402" cy="98.315" fill="#F8D24E" rx="5.858" ry="6.244"/>
    <ellipse cx="298.779" cy="136.819" fill="#F8D24E" rx="5.858" ry="6.244"/>
    <ellipse cx="311.473" cy="128.494" fill="#F8D24E" rx="5.858" ry="6.244"/>
    <ellipse cx="326.119" cy="119.129" fill="#F8D24E" rx="5.858" ry="6.244"/>
    <ellipse cx="339.789" cy="110.803" fill="#F8D24E" rx="5.858" ry="6.244"/>
    <ellipse cx="300.732" cy="120.169" fill="#F8D24E" rx="5.858" ry="6.244"/>
    <ellipse cx="313.426" cy="111.844" fill="#F8D24E" rx="5.858" ry="6.244"/>
    <ellipse cx="328.072" cy="102.478" fill="#F8D24E" rx="5.858" ry="6.244"/>
    <ellipse cx="341.741" cy="94.153" fill="#F8D24E" rx="5.858" ry="6.244"/>
    <ellipse cx="247.03" cy="126.413" fill="#F8D24E" rx="5.858" ry="6.244"/>
    <ellipse cx="259.723" cy="118.088" fill="#F8D24E" rx="5.858" ry="6.244"/>
    <ellipse cx="274.37" cy="108.722" fill="#F8D24E" rx="5.858" ry="6.244"/>
    <ellipse cx="288.039" cy="100.397" fill="#F8D24E" rx="5.858" ry="6.244"/>
    <ellipse cx="5.858" cy="358.478" fill="#F8D24E" rx="5.858" ry="6.244"/>
    <ellipse cx="18.551" cy="350.153" fill="#F8D24E" rx="5.858" ry="6.244"/>
    <ellipse cx="33.198" cy="340.787" fill="#F8D24E" rx="5.858" ry="6.244"/>
    <ellipse cx="46.867" cy="332.462" fill="#F8D24E" rx="5.858" ry="6.244"/>
    <ellipse cx="80.065" cy="361.6" fill="#F8D24E" rx="5.858" ry="6.244"/>
    <ellipse cx="92.758" cy="353.275" fill="#F8D24E" rx="5.858" ry="6.244"/>
    <ellipse cx="107.404" cy="343.909" fill="#F8D24E" rx="5.858" ry="6.244"/>
    <ellipse cx="121.074" cy="335.584" fill="#F8D24E" rx="5.858" ry="6.244"/>
    <ellipse cx="110.334" cy="357.438" fill="#F8D24E" rx="5.858" ry="6.244"/>
    <ellipse cx="123.027" cy="349.112" fill="#F8D24E" rx="5.858" ry="6.244"/>
    <ellipse cx="137.673" cy="339.746" fill="#F8D24E" rx="5.858" ry="6.244"/>
    <ellipse cx="151.343" cy="331.421" fill="#F8D24E" rx="5.858" ry="6.244"/>
    <ellipse cx="165.989" cy="318.933" fill="#F8D24E" rx="5.858" ry="6.244"/>
    <ellipse cx="134.744" cy="326.218" fill="#F8D24E" rx="5.858" ry="6.244"/>
    <ellipse cx="1024.25" cy="376.672" fill="#F8D24E" rx="5.858" ry="6.239"/>
    <ellipse cx="1036.94" cy="368.353" fill="#F8D24E" rx="5.858" ry="6.239"/>
    <ellipse cx="1051.59" cy="358.995" fill="#F8D24E" rx="5.858" ry="6.239"/>
    <ellipse cx="1065.26" cy="350.677" fill="#F8D24E" rx="5.858" ry="6.239"/>
    <ellipse cx="1057.44" cy="372.513" fill="#F8D24E" rx="5.858" ry="6.239"/>
    <ellipse cx="1070.14" cy="364.194" fill="#F8D24E" rx="5.858" ry="6.239"/>
    <ellipse cx="1084.78" cy="354.836" fill="#F8D24E" rx="5.858" ry="6.239"/>
    <ellipse cx="1098.45" cy="346.518" fill="#F8D24E" rx="5.858" ry="6.239"/>
    <ellipse cx="1085.76" cy="369.393" fill="#F8D24E" rx="5.858" ry="6.239"/>
    <ellipse cx="1098.45" cy="361.075" fill="#F8D24E" rx="5.858" ry="6.239"/>
    <ellipse cx="1113.1" cy="351.717" fill="#F8D24E" rx="5.858" ry="6.239"/>
    <ellipse cx="1126.77" cy="343.398" fill="#F8D24E" rx="5.858" ry="6.239"/>
    <ellipse cx="1113.1" cy="365.234" fill="#F8D24E" rx="5.858" ry="6.239"/>
    <ellipse cx="1125.79" cy="356.916" fill="#F8D24E" rx="5.858" ry="6.239"/>
    <ellipse cx="1140.44" cy="347.557" fill="#F8D24E" rx="5.858" ry="6.239"/>
    <ellipse cx="1154.11" cy="339.239" fill="#F8D24E" rx="5.858" ry="6.239"/>
    <ellipse cx="1121.89" cy="376.672" fill="#F8D24E" rx="5.858" ry="6.239"/>
    <ellipse cx="1134.58" cy="368.353" fill="#F8D24E" rx="5.858" ry="6.239"/>
    <ellipse cx="1152.16" cy="377.712" fill="#F8D24E" rx="5.858" ry="6.239"/>
    <ellipse cx="1149.23" cy="358.995" fill="#F8D24E" rx="5.858" ry="6.239"/>
    <ellipse cx="1166.8" cy="368.353" fill="#F8D24E" rx="5.858" ry="6.239"/>
    <ellipse cx="1180.47" cy="377.712" fill="#F8D24E" rx="5.858" ry="6.239"/>
    <ellipse cx="1162.9" cy="350.677" fill="#F8D24E" rx="5.858" ry="6.239"/>
    <ellipse cx="1180.47" cy="360.035" fill="#F8D24E" rx="5.858" ry="6.239"/>
    <ellipse cx="1194.14" cy="369.393" fill="#F8D24E" rx="5.858" ry="6.239"/>
    <ellipse cx="964.687" cy="308.045" fill="#F8D24E" rx="5.858" ry="6.239"/>
    <ellipse cx="977.38" cy="299.727" fill="#F8D24E" rx="5.858" ry="6.239"/>
    <ellipse cx="992.026" cy="290.369" fill="#F8D24E" rx="5.858" ry="6.239"/>
    <ellipse cx="1005.7" cy="282.05" fill="#F8D24E" rx="5.858" ry="6.239"/>
    <ellipse cx="940.276" cy="307.005" fill="#F8D24E" rx="5.858" ry="6.239"/>
    <ellipse cx="952.97" cy="298.687" fill="#F8D24E" rx="5.858" ry="6.239"/>
    <ellipse cx="967.616" cy="289.329" fill="#F8D24E" rx="5.858" ry="6.239"/>
    <ellipse cx="981.285" cy="281.01" fill="#F8D24E" rx="5.858" ry="6.239"/>
    <ellipse cx="994.956" cy="376.672" fill="#F8D24E" rx="5.858" ry="6.239"/>
    <ellipse cx="1007.65" cy="368.353" fill="#F8D24E" rx="5.858" ry="6.239"/>
    <ellipse cx="1022.29" cy="358.995" fill="#F8D24E" rx="5.858" ry="6.239"/>
    <ellipse cx="1035.96" cy="350.677" fill="#F8D24E" rx="5.858" ry="6.239"/>
    <ellipse cx="979.333" cy="370.433" fill="#F8D24E" rx="5.858" ry="6.239"/>
    <ellipse cx="992.026" cy="362.115" fill="#F8D24E" rx="5.858" ry="6.239"/>
    <ellipse cx="1006.67" cy="352.756" fill="#F8D24E" rx="5.858" ry="6.239"/>
    <ellipse cx="1020.34" cy="344.438" fill="#F8D24E" rx="5.858" ry="6.239"/>
    <ellipse cx="985.191" cy="348.597" fill="#F8D24E" rx="5.858" ry="6.239"/>
    <ellipse cx="997.885" cy="340.279" fill="#F8D24E" rx="5.858" ry="6.239"/>
    <ellipse cx="1012.53" cy="330.921" fill="#F8D24E" rx="5.858" ry="6.239"/>
    <ellipse cx="1026.2" cy="322.602" fill="#F8D24E" rx="5.858" ry="6.239"/>
    <ellipse fill="#F8D24E" rx="5.867" ry="6.23" transform="matrix(.98693 -.16112 .14249 .9898 680.19 303.798)"/>
    <ellipse fill="#F8D24E" rx="5.867" ry="6.23" transform="matrix(.98693 -.16112 .14249 .9898 691.553 293.528)"/>
    <ellipse fill="#F8D24E" rx="5.867" ry="6.23" transform="matrix(.98693 -.16112 .14249 .9898 704.699 281.914)"/>
    <ellipse fill="#F8D24E" rx="5.867" ry="6.23" transform="matrix(.98693 -.16112 .14249 .9898 717.027 271.486)"/>
    <ellipse cx="985.191" cy="312.204" fill="#F8D24E" rx="5.858" ry="6.239"/>
    <ellipse cx="997.885" cy="303.886" fill="#F8D24E" rx="5.858" ry="6.239"/>
    <ellipse cx="1012.53" cy="294.528" fill="#F8D24E" rx="5.858" ry="6.239"/>
    <ellipse cx="1026.2" cy="286.209" fill="#F8D24E" rx="5.858" ry="6.239"/>
    <ellipse cx="982.262" cy="331.96" fill="#F8D24E" rx="5.858" ry="6.239"/>
    <ellipse cx="994.956" cy="323.642" fill="#F8D24E" rx="5.858" ry="6.239"/>
    <ellipse cx="1009.6" cy="314.284" fill="#F8D24E" rx="5.858" ry="6.239"/>
    <ellipse cx="1023.27" cy="305.965" fill="#F8D24E" rx="5.858" ry="6.239"/>
    <ellipse cx="920.749" cy="301.806" fill="#F8D24E" rx="5.858" ry="6.239"/>
    <ellipse cx="933.442" cy="293.488" fill="#F8D24E" rx="5.858" ry="6.239"/>
    <ellipse cx="948.088" cy="284.13" fill="#F8D24E" rx="5.858" ry="6.239"/>
    <path fill="#F8D24E" d="M947.112 308.045c3.235 0 5.858-2.793 5.858-6.239 0-3.445-2.623-6.239-5.858-6.239-3.236 0-5.859 2.794-5.859 6.239 0 3.446 2.623 6.239 5.859 6.239Z"/>
    <ellipse cx="52.726" cy="360.559" fill="#F8D24E" rx="5.858" ry="6.244"/>
    <ellipse cx="65.419" cy="352.234" fill="#F8D24E" rx="5.858" ry="6.244"/>
    <ellipse cx="80.065" cy="342.868" fill="#F8D24E" rx="5.858" ry="6.244"/>
    <ellipse cx="93.735" cy="334.543" fill="#F8D24E" rx="5.858" ry="6.244"/>
    <ellipse cx="28.316" cy="359.519" fill="#F8D24E" rx="5.858" ry="6.244"/>
    <ellipse cx="41.009" cy="351.193" fill="#F8D24E" rx="5.858" ry="6.244"/>
    <ellipse cx="55.655" cy="341.828" fill="#F8D24E" rx="5.858" ry="6.244"/>
    <ellipse cx="69.324" cy="333.503" fill="#F8D24E" rx="5.858" ry="6.244"/>
    <ellipse cx="447.193" cy="56.69" fill="#F8D24E" rx="5.858" ry="6.244"/>
    <ellipse cx="459.886" cy="48.364" fill="#F8D24E" rx="5.858" ry="6.244"/>
    <ellipse cx="474.532" cy="38.998" fill="#F8D24E" rx="5.858" ry="6.244"/>
    <ellipse cx="488.202" cy="30.673" fill="#F8D24E" rx="5.858" ry="6.244"/>
    <ellipse cx="445.24" cy="99.356" fill="#F8D24E" rx="5.858" ry="6.244"/>
    <ellipse cx="457.933" cy="91.031" fill="#F8D24E" rx="5.858" ry="6.244"/>
    <ellipse cx="472.58" cy="81.665" fill="#F8D24E" rx="5.858" ry="6.244"/>
    <ellipse cx="486.249" cy="73.34" fill="#F8D24E" rx="5.858" ry="6.244"/>
    <ellipse cx="448.169" cy="77.502" fill="#F8D24E" rx="5.858" ry="6.244"/>
    <ellipse cx="460.862" cy="69.177" fill="#F8D24E" rx="5.858" ry="6.244"/>
    <ellipse cx="475.509" cy="59.812" fill="#F8D24E" rx="5.858" ry="6.244"/>
    <ellipse cx="489.178" cy="51.486" fill="#F8D24E" rx="5.858" ry="6.244"/>
    <ellipse cx="446.216" cy="120.169" fill="#F8D24E" rx="5.858" ry="6.244"/>
    <ellipse cx="458.91" cy="111.844" fill="#F8D24E" rx="5.858" ry="6.244"/>
    <ellipse cx="473.556" cy="102.478" fill="#F8D24E" rx="5.858" ry="6.244"/>
    <ellipse cx="487.225" cy="94.153" fill="#F8D24E" rx="5.858" ry="6.244"/>
    <ellipse cx="452.075" cy="134.738" fill="#F8D24E" rx="5.858" ry="6.244"/>
    <ellipse cx="464.768" cy="126.413" fill="#F8D24E" rx="5.858" ry="6.244"/>
    <ellipse cx="479.414" cy="117.047" fill="#F8D24E" rx="5.858" ry="6.244"/>
    <ellipse cx="493.084" cy="108.722" fill="#F8D24E" rx="5.858" ry="6.244"/>
    <ellipse cx="464.768" cy="146.185" fill="#F8D24E" rx="5.858" ry="6.244"/>
    <ellipse cx="477.461" cy="137.86" fill="#F8D24E" rx="5.858" ry="6.244"/>
    <ellipse cx="492.107" cy="128.494" fill="#F8D24E" rx="5.858" ry="6.244"/>
    <ellipse cx="505.777" cy="120.169" fill="#F8D24E" rx="5.858" ry="6.244"/>
    <ellipse cx="481.367" cy="155.551" fill="#F8D24E" rx="5.858" ry="6.244"/>
    <ellipse cx="494.06" cy="147.226" fill="#F8D24E" rx="5.858" ry="6.244"/>
    <ellipse cx="508.706" cy="137.86" fill="#F8D24E" rx="5.858" ry="6.244"/>
    <ellipse cx="522.376" cy="129.535" fill="#F8D24E" rx="5.858" ry="6.244"/>
    <ellipse cx="500.895" cy="157.633" fill="#F8D24E" rx="5.858" ry="6.244"/>
    <ellipse cx="513.588" cy="149.307" fill="#F8D24E" rx="5.858" ry="6.244"/>
    <ellipse cx="528.234" cy="139.942" fill="#F8D24E" rx="5.858" ry="6.244"/>
    <ellipse cx="541.904" cy="131.616" fill="#F8D24E" rx="5.858" ry="6.244"/>
    <ellipse cx="520.423" cy="161.795" fill="#F8D24E" rx="5.858" ry="6.244"/>
    <ellipse cx="533.117" cy="153.47" fill="#F8D24E" rx="5.858" ry="6.244"/>
    <ellipse cx="547.763" cy="144.104" fill="#F8D24E" rx="5.858" ry="6.244"/>
    <ellipse cx="561.433" cy="135.779" fill="#F8D24E" rx="5.858" ry="6.244"/>
    <ellipse cx="515.542" cy="181.568" fill="#F8D24E" rx="5.858" ry="6.244"/>
    <ellipse cx="528.234" cy="173.242" fill="#F8D24E" rx="5.858" ry="6.244"/>
    <ellipse cx="542.88" cy="163.876" fill="#F8D24E" rx="5.858" ry="6.244"/>
    <ellipse cx="556.55" cy="155.551" fill="#F8D24E" rx="5.858" ry="6.244"/>
    <ellipse cx="513.588" cy="200.299" fill="#F8D24E" rx="5.858" ry="6.244"/>
    <ellipse cx="526.282" cy="191.974" fill="#F8D24E" rx="5.858" ry="6.244"/>
    <ellipse cx="540.928" cy="182.608" fill="#F8D24E" rx="5.858" ry="6.244"/>
    <ellipse cx="554.597" cy="174.283" fill="#F8D24E" rx="5.858" ry="6.244"/>
    <ellipse cx="506.753" cy="224.234" fill="#F8D24E" rx="5.858" ry="6.244"/>
    <ellipse cx="519.447" cy="215.909" fill="#F8D24E" rx="5.858" ry="6.244"/>
    <ellipse cx="534.093" cy="206.543" fill="#F8D24E" rx="5.858" ry="6.244"/>
    <ellipse cx="547.763" cy="198.218" fill="#F8D24E" rx="5.858" ry="6.244"/>
    <ellipse cx="503.824" cy="245.047" fill="#F8D24E" rx="5.858" ry="6.244"/>
    <ellipse cx="516.517" cy="236.722" fill="#F8D24E" rx="5.858" ry="6.244"/>
    <ellipse cx="531.163" cy="227.356" fill="#F8D24E" rx="5.858" ry="6.244"/>
    <ellipse cx="544.833" cy="219.031" fill="#F8D24E" rx="5.858" ry="6.244"/>
    <ellipse cx="499.918" cy="266.901" fill="#F8D24E" rx="5.858" ry="6.244"/>
    <ellipse cx="512.612" cy="258.576" fill="#F8D24E" rx="5.858" ry="6.244"/>
    <ellipse cx="527.258" cy="249.21" fill="#F8D24E" rx="5.858" ry="6.244"/>
    <ellipse cx="540.928" cy="240.885" fill="#F8D24E" rx="5.858" ry="6.244"/>
    <ellipse cx="497.965" cy="284.592" fill="#F8D24E" rx="5.858" ry="6.244"/>
    <ellipse cx="510.659" cy="276.267" fill="#F8D24E" rx="5.858" ry="6.244"/>
    <ellipse cx="525.305" cy="266.901" fill="#F8D24E" rx="5.858" ry="6.244"/>
    <ellipse cx="538.975" cy="258.576" fill="#F8D24E" rx="5.858" ry="6.244"/>
    <ellipse cx="496.013" cy="303.324" fill="#F8D24E" rx="5.858" ry="6.244"/>
    <ellipse cx="508.707" cy="294.998" fill="#F8D24E" rx="5.858" ry="6.244"/>
    <ellipse cx="523.353" cy="285.633" fill="#F8D24E" rx="5.858" ry="6.244"/>
    <ellipse cx="537.022" cy="277.307" fill="#F8D24E" rx="5.858" ry="6.244"/>
    <ellipse cx="501.871" cy="318.933" fill="#F8D24E" rx="5.858" ry="6.244"/>
    <ellipse cx="514.564" cy="310.608" fill="#F8D24E" rx="5.858" ry="6.244"/>
    <ellipse cx="529.21" cy="301.242" fill="#F8D24E" rx="5.858" ry="6.244"/>
    <ellipse cx="542.88" cy="292.917" fill="#F8D24E" rx="5.858" ry="6.244"/>
    <ellipse cx="516.518" cy="327.259" fill="#F8D24E" rx="5.858" ry="6.244"/>
    <ellipse cx="529.211" cy="318.933" fill="#F8D24E" rx="5.858" ry="6.244"/>
    <ellipse cx="543.857" cy="309.568" fill="#F8D24E" rx="5.858" ry="6.244"/>
    <ellipse cx="557.526" cy="301.242" fill="#F8D24E" rx="5.858" ry="6.244"/>
    <ellipse cx="533.117" cy="332.462" fill="#F8D24E" rx="5.858" ry="6.244"/>
    <ellipse cx="545.81" cy="324.137" fill="#F8D24E" rx="5.858" ry="6.244"/>
    <ellipse cx="560.456" cy="314.771" fill="#F8D24E" rx="5.858" ry="6.244"/>
    <ellipse cx="574.125" cy="306.446" fill="#F8D24E" rx="5.858" ry="6.244"/>
    <ellipse cx="554.597" cy="333.503" fill="#F8D24E" rx="5.858" ry="6.244"/>
    <ellipse cx="567.291" cy="325.177" fill="#F8D24E" rx="5.858" ry="6.244"/>
    <ellipse cx="581.937" cy="315.811" fill="#F8D24E" rx="5.858" ry="6.244"/>
    <ellipse cx="595.606" cy="307.486" fill="#F8D24E" rx="5.858" ry="6.244"/>
    <ellipse cx="579.984" cy="333.503" fill="#F8D24E" rx="5.858" ry="6.244"/>
    <ellipse cx="592.677" cy="325.177" fill="#F8D24E" rx="5.858" ry="6.244"/>
    <ellipse cx="607.323" cy="315.811" fill="#F8D24E" rx="5.858" ry="6.244"/>
    <ellipse cx="620.993" cy="307.486" fill="#F8D24E" rx="5.858" ry="6.244"/>
    <ellipse cx="601.464" cy="332.462" fill="#F8D24E" rx="5.858" ry="6.244"/>
    <ellipse cx="614.157" cy="324.137" fill="#F8D24E" rx="5.858" ry="6.244"/>
    <ellipse cx="628.804" cy="314.771" fill="#F8D24E" rx="5.858" ry="6.244"/>
    <ellipse cx="642.473" cy="306.446" fill="#F8D24E" rx="5.858" ry="6.244"/>
    <ellipse cx="625.875" cy="331.421" fill="#F8D24E" rx="5.858" ry="6.244"/>
    <ellipse cx="638.568" cy="323.096" fill="#F8D24E" rx="5.858" ry="6.244"/>
    <ellipse cx="653.213" cy="313.73" fill="#F8D24E" rx="5.858" ry="6.244"/>
    <ellipse cx="666.883" cy="305.405" fill="#F8D24E" rx="5.858" ry="6.244"/>
    <ellipse cx="648.332" cy="304.364" fill="#F8D24E" rx="5.858" ry="6.244"/>
    <ellipse cx="661.025" cy="296.039" fill="#F8D24E" rx="5.858" ry="6.244"/>
    <ellipse cx="675.671" cy="286.673" fill="#F8D24E" rx="5.858" ry="6.244"/>
    <ellipse cx="689.341" cy="278.348" fill="#F8D24E" rx="5.858" ry="6.244"/>
  </symbol>
</svg>